<svg width="25" height="25" viewBox="0 0 25 25" fill="none" xmlns="http://www.w3.org/2000/svg"><path d="M8.33329 7.29167H16.6666C18.6308 7.29167 19.6129 7.29167 20.2231 7.90187C20.8333 8.51205 20.8333 9.49415 20.8333 11.4583V15.625C20.8333 19.0623 20.8333 20.7809 19.7655 21.8489C18.6976 22.9167 16.9789 22.9167 13.5416 22.9167H11.4583C8.02097 22.9167 6.3023 22.9167 5.23447 21.8489C4.16663 20.7809 4.16663 19.0623 4.16663 15.625V11.4583C4.16663 9.49415 4.16663 8.51205 4.77682 7.90187C5.38701 7.29167 6.36911 7.29167 8.33329 7.29167Z" stroke="currentColor" stroke-width="calc(var(--icon-stroke-width) * 1.0417)" stroke-linecap="round" stroke-linejoin="round"/><path d="M16.6667 9.89583C16.6667 5.86876 14.8012 2.08333 12.5 2.08333C10.1989 2.08333 8.33337 5.86876 8.33337 9.89583" stroke="currentColor" stroke-width="calc(var(--icon-stroke-width) * 1.0417)" stroke-linecap="round" stroke-linejoin="round"/></svg>
